# xmcd
#
# Track frame offsets:
#	150
#	20162
#	36684
#	55681
#	70579
#	86597
#	105888
#	120593
#	136841
#	154329
#
# Disc length: 2291 seconds
#
# Revision: 0
# Processed by: cddbd v1.5.2PL0 Copyright (c) Steve Scherf et al.
# Submitted via: EasyCDDAExtractor 10.2.0.1
#
DISCID=7f08f10a
DTITLE=Quim Barreiros - Bacalhau à Portuguesa
DYEAR=1900
DGENRE=
TTITLE0=Bacalhau à portuguesa
TTITLE1=Maria jornaleira
TTITLE2=Cuidado Zé
TTITLE3=Curso de dactilografia
TTITLE4=Comprar sem poder
TTITLE5=O disco
TTITLE6=O grilinho
TTITLE7=Picada de enfermeiro
TTITLE8=Rapaz bonzinho
TTITLE9=Negócio grande
EXTD=
EXTT0=
EXTT1=
EXTT2=
EXTT3=
EXTT4=
EXTT5=
EXTT6=
EXTT7=
EXTT8=
EXTT9=
PLAYORDER=
